<svg width="93" height="94" viewBox="0 0 93 94" fill="none" xmlns="http://www.w3.org/2000/svg">
<g filter="url(#filter0_f_576_1719)">
<path d="M56.0116 44.4158L39.4911 35.3766C38.5412 34.8568 37.4184 34.8762 36.4873 35.4279C35.5557 35.9802 35 36.9557 35 38.0386V55.962C35 57.0397 35.5523 58.0136 36.4776 58.5664C36.9609 58.8551 37.4966 59 38.0334 59C38.5252 59 39.0182 58.8785 39.4717 58.6343L55.9927 49.7508C56.9735 49.223 57.5856 48.2035 57.5902 47.0893C57.5942 45.9751 56.9894 44.951 56.0116 44.4158ZM39.3821 53.7073V40.3115L51.7293 47.0676L39.3821 53.7073Z" fill="#239680"/>
</g>
<g filter="url(#filter1_f_576_1719)">
<path d="M56.0116 44.4158L39.4911 35.3766C38.5412 34.8568 37.4184 34.8762 36.4873 35.4279C35.5557 35.9802 35 36.9557 35 38.0386V55.962C35 57.0397 35.5523 58.0136 36.4776 58.5664C36.9609 58.8551 37.4966 59 38.0334 59C38.5252 59 39.0182 58.8785 39.4717 58.6343L55.9927 49.7508C56.9735 49.223 57.5856 48.2035 57.5902 47.0893C57.5942 45.9751 56.9894 44.951 56.0116 44.4158ZM39.3821 53.7073V40.3115L51.7293 47.0676L39.3821 53.7073Z" fill="#239680"/>
</g>
<g filter="url(#filter2_f_576_1719)">
<path d="M56.0116 44.4158L39.4911 35.3766C38.5412 34.8568 37.4184 34.8762 36.4873 35.4279C35.5557 35.9802 35 36.9557 35 38.0386V55.962C35 57.0397 35.5523 58.0136 36.4776 58.5664C36.9609 58.8551 37.4966 59 38.0334 59C38.5252 59 39.0182 58.8785 39.4717 58.6343L55.9927 49.7508C56.9735 49.223 57.5856 48.2035 57.5902 47.0893C57.5942 45.9751 56.9894 44.951 56.0116 44.4158ZM39.3821 53.7073V40.3115L51.7293 47.0676L39.3821 53.7073Z" fill="#239680"/>
</g>
<g filter="url(#filter3_f_576_1719)">
<path d="M56.0116 44.4158L39.4911 35.3766C38.5412 34.8568 37.4184 34.8762 36.4873 35.4279C35.5557 35.9802 35 36.9557 35 38.0386V55.962C35 57.0397 35.5523 58.0136 36.4776 58.5664C36.9609 58.8551 37.4966 59 38.0334 59C38.5252 59 39.0182 58.8785 39.4717 58.6343L55.9927 49.7508C56.9735 49.223 57.5856 48.2035 57.5902 47.0893C57.5942 45.9751 56.9894 44.951 56.0116 44.4158ZM39.3821 53.7073V40.3115L51.7293 47.0676L39.3821 53.7073Z" fill="#239680"/>
</g>
<g filter="url(#filter4_f_576_1719)">
<path d="M56.0116 44.4158L39.4911 35.3766C38.5412 34.8568 37.4184 34.8762 36.4873 35.4279C35.5557 35.9802 35 36.9557 35 38.0386V55.962C35 57.0397 35.5523 58.0136 36.4776 58.5664C36.9609 58.8551 37.4966 59 38.0334 59C38.5252 59 39.0182 58.8785 39.4717 58.6343L55.9927 49.7508C56.9735 49.223 57.5856 48.2035 57.5902 47.0893C57.5942 45.9751 56.9894 44.951 56.0116 44.4158ZM39.3821 53.7073V40.3115L51.7293 47.0676L39.3821 53.7073Z" fill="#239680"/>
</g>
<path d="M56.0116 44.4158L39.4911 35.3766C38.5412 34.8568 37.4184 34.8762 36.4873 35.4279C35.5557 35.9802 35 36.9557 35 38.0386V55.962C35 57.0397 35.5523 58.0136 36.4776 58.5664C36.9609 58.8551 37.4966 59 38.0334 59C38.5252 59 39.0182 58.8785 39.4717 58.6343L55.9927 49.7508C56.9735 49.223 57.5856 48.2035 57.5902 47.0893C57.5942 45.9751 56.9894 44.951 56.0116 44.4158ZM39.3821 53.7073V40.3115L51.7293 47.0676L39.3821 53.7073Z" fill="#E1F2EF"/>
<defs>
<filter id="filter0_f_576_1719" x="30" y="30" width="32.5902" height="34" filterUnits="userSpaceOnUse" color-interpolation-filters="sRGB">
<feFlood flood-opacity="0" result="BackgroundImageFix"/>
<feBlend mode="normal" in="SourceGraphic" in2="BackgroundImageFix" result="shape"/>
<feGaussianBlur stdDeviation="2.5" result="effect1_foregroundBlur_576_1719"/>
</filter>
<filter id="filter1_f_576_1719" x="25" y="25" width="42.5902" height="44" filterUnits="userSpaceOnUse" color-interpolation-filters="sRGB">
<feFlood flood-opacity="0" result="BackgroundImageFix"/>
<feBlend mode="normal" in="SourceGraphic" in2="BackgroundImageFix" result="shape"/>
<feGaussianBlur stdDeviation="5" result="effect1_foregroundBlur_576_1719"/>
</filter>
<filter id="filter2_f_576_1719" x="20" y="20" width="52.5902" height="54" filterUnits="userSpaceOnUse" color-interpolation-filters="sRGB">
<feFlood flood-opacity="0" result="BackgroundImageFix"/>
<feBlend mode="normal" in="SourceGraphic" in2="BackgroundImageFix" result="shape"/>
<feGaussianBlur stdDeviation="7.5" result="effect1_foregroundBlur_576_1719"/>
</filter>
<filter id="filter3_f_576_1719" x="15" y="15" width="62.5902" height="64" filterUnits="userSpaceOnUse" color-interpolation-filters="sRGB">
<feFlood flood-opacity="0" result="BackgroundImageFix"/>
<feBlend mode="normal" in="SourceGraphic" in2="BackgroundImageFix" result="shape"/>
<feGaussianBlur stdDeviation="10" result="effect1_foregroundBlur_576_1719"/>
</filter>
<filter id="filter4_f_576_1719" x="0" y="0" width="92.5902" height="94" filterUnits="userSpaceOnUse" color-interpolation-filters="sRGB">
<feFlood flood-opacity="0" result="BackgroundImageFix"/>
<feBlend mode="normal" in="SourceGraphic" in2="BackgroundImageFix" result="shape"/>
<feGaussianBlur stdDeviation="17.5" result="effect1_foregroundBlur_576_1719"/>
</filter>
</defs>
</svg>
