<svg width="186" height="310" viewBox="0 0 186 310" fill="none" xmlns="http://www.w3.org/2000/svg">
<path fill-rule="evenodd" clip-rule="evenodd" d="M78.4946 5.91106C62.8438 2.45772 48.9072 -2.94407 32.509 1.97503C26.8814 3.3122 21.2427 5.67717 16.1246 9.65141C-14.1284 33.0281 3.91432 111.258 23.6713 135.052C26.7078 141.722 29.6598 146.603 32.1968 148.074C38.1404 151.47 67.2043 151.649 93.0041 151.235C118.794 151.649 147.851 151.47 153.798 148.074C156.335 146.603 159.294 141.722 162.33 135.052C182.091 111.258 200.133 33.0281 169.861 9.65141C164.738 5.67717 159.107 3.3122 153.485 1.97503C137.097 -2.94407 123.148 2.45772 107.497 5.91106C97.5216 7.00689 88.4635 7.00689 78.4946 5.91106ZM80.9498 14.277C80.9498 14.277 43.3475 4.93264 27.2514 14.2323C-3.50756 32.004 11.8687 96.7706 24.9687 120.913C32.6045 134.983 55.87 143.862 95.4905 144.976C135.11 146.088 144.196 140.533 155.469 126.093C179.031 95.9161 196.478 0.385341 144.199 12.4255C41.1025 36.1749 105.979 22.4323 80.9498 14.277Z" fill="white"/>
<path fill-rule="evenodd" clip-rule="evenodd" d="M28.5083 165.953C28.5083 165.953 28.152 159.502 35.4885 158.273C42.8249 157.045 79.5035 158.682 85.4205 158.376C91.3374 158.068 91.3374 158.068 91.3374 158.068C91.3374 158.068 62.5838 164.622 50.9887 165.748C39.3936 166.876 32.8854 166.466 28.5083 165.953Z" fill="white"/>
<path fill-rule="evenodd" clip-rule="evenodd" d="M30.6389 182.011C30.6389 182.011 28.9825 174.433 42.2341 172.999C47.6166 172.417 54.0376 172.502 61.6991 171.912C80.9906 170.426 121.806 166.778 157.48 153.337C157.48 153.337 157.48 161.324 151.327 164.807C145.175 168.288 111.536 174.531 96.8057 176.959C82.0749 179.386 58.7994 180.474 30.6389 182.011Z" fill="white"/>
<path fill-rule="evenodd" clip-rule="evenodd" d="M32.7685 196.757C32.7685 196.757 31.112 189.179 44.3635 187.745C49.7461 187.162 56.1689 187.247 63.8286 186.657C83.12 185.172 119.199 183.338 154.873 169.896C154.873 169.896 154.873 177.885 148.72 181.366C142.568 184.848 113.665 189.277 98.9352 191.704C84.2044 194.131 60.9289 195.221 32.7685 196.757Z" fill="white"/>
<path fill-rule="evenodd" clip-rule="evenodd" d="M34.6606 210.686C34.6606 210.686 33.0051 203.109 46.2557 201.675C51.6392 201.092 58.062 201.176 65.7217 200.587C76.7217 199.741 91.8666 198.467 110.315 195.439C124.218 193.158 140.868 190.097 154.161 184.235C154.161 184.235 154.161 192.223 148.009 195.705C141.856 199.187 115.558 203.207 100.827 205.634C86.0966 208.061 62.822 209.15 34.6606 210.686Z" fill="white"/>
<path fill-rule="evenodd" clip-rule="evenodd" d="M37.2653 224.819C37.2653 224.819 35.6088 217.24 48.8604 215.806C54.2429 215.223 60.6657 215.307 68.3254 214.718C94.6723 212.694 126.968 210.638 150.85 200.107C150.85 200.107 151.085 208.354 144.52 211.219C117.346 223.076 61.3617 222.517 37.2653 224.819Z" fill="white"/>
<path fill-rule="evenodd" clip-rule="evenodd" d="M39.6283 238.336C39.6283 238.336 37.9727 230.759 51.2233 229.325C56.6068 228.742 63.0296 228.826 70.6893 228.237C95.4193 226.336 125.561 224.752 148.008 214.854C148.008 214.854 148.409 223.403 141.677 225.966C116.256 235.644 62.2152 235.314 39.6283 238.336Z" fill="white"/>
<path fill-rule="evenodd" clip-rule="evenodd" d="M42.0818 251.75C42.0818 251.75 42.0818 246.138 53.0782 244.784C64.0755 243.429 91.2314 241.3 107.614 239.171C123.998 237.042 131.404 235.493 136.566 233.559C141.727 231.624 144.869 229.3 144.869 229.3C144.869 229.3 146.671 232.583 140.381 238.009C135.366 242.338 121.543 243.932 109.76 245.538C95.3285 247.505 80.3636 248.787 67.6749 250.051C59.1338 250.903 42.0046 250.773 42.0818 251.75Z" fill="white"/>
<path fill-rule="evenodd" clip-rule="evenodd" d="M44.431 265.399C44.431 265.399 44.431 259.786 55.4274 258.431C66.4247 257.077 84.7833 256.138 101.167 254.009C117.55 251.881 129.033 249.829 134.196 247.894C139.357 245.96 142.499 243.637 142.499 243.637C142.499 243.637 143.615 249.652 135.8 253.31C116.277 262.448 77.7545 262.354 54.0951 264.952C48.8035 265.534 44.3869 264.818 44.431 265.399Z" fill="white"/>
<path fill-rule="evenodd" clip-rule="evenodd" d="M47.085 277.782C47.085 277.782 48.7414 272.356 56.7876 271.536C64.8339 270.716 78.7952 270.205 99.5016 267.644C120.209 265.083 124.921 263.387 130.148 261.705C135.375 260.022 139.732 257.608 139.732 257.608C139.732 257.608 139.109 263.49 136.064 265.698C123.806 274.586 75.0388 277.577 60.1005 277.577C54.5399 277.577 48.2695 277.27 47.085 277.782Z" fill="white"/>
<path fill-rule="evenodd" clip-rule="evenodd" d="M51.4608 289.557C51.4608 289.557 53.9464 284.131 63.6491 283.516C85.1213 282.156 114.11 280.942 133.458 272.047C137.245 270.306 137.363 270.306 137.363 270.306C137.363 270.306 137.34 276.584 132.393 278.703C113.36 286.855 88.7665 287.907 74.965 288.492C66.3174 288.859 57.4016 289.306 51.4608 289.557Z" fill="white"/>
<path fill-rule="evenodd" clip-rule="evenodd" d="M60.1004 300.21C60.1004 300.21 61.8762 296.421 68.1466 295.703C86.5603 293.598 105.087 292.886 123.285 287.921C128.539 286.487 132.395 284.029 132.395 284.029C132.395 284.029 131.882 290.36 126.243 292.222C105.971 298.916 76.3517 300.477 60.1004 300.21Z" fill="white"/>
<path fill-rule="evenodd" clip-rule="evenodd" d="M67.7935 309.219C67.7935 309.219 72.526 305.122 83.5297 304.917C94.5335 304.712 106.486 302.05 114.886 300.412C123.286 298.773 125.535 297.134 125.535 297.134C125.535 297.134 124.469 301.537 119.263 303.79C114.056 306.044 102.579 308.502 94.5335 309.32C86.4882 310.139 75.602 310.344 67.7935 309.219Z" fill="white"/>
</svg>
