<svg width="24" height="24" viewBox="0 0 24 24" fill="none" xmlns="http://www.w3.org/2000/svg">
<path d="M23.8214 0.961738C23.6138 0.72924 23.2861 0.666897 23.0147 0.78549L0.42111 10.676C0.170799 10.7857 0.00626892 11.0309 0.000175217 11.3046C-0.00591849 11.5779 0.147362 11.8301 0.392985 11.951L5.78779 14.6041L7.13215 22.6694C7.17575 22.9755 7.41621 23.2216 7.72934 23.2661C7.95434 23.2984 8.17793 23.2192 8.33261 23.0598L12.5916 18.8008L18.6694 23.1423C18.8644 23.2811 19.1157 23.3116 19.3369 23.2239C19.5586 23.1363 19.7208 22.9417 19.7677 22.7078L23.9864 1.56736C24.0281 1.35783 23.9742 1.1333 23.8214 0.961738ZM6.34466 13.3109L2.37203 11.3571L18.0666 4.48671L6.34466 13.3109ZM8.54496 15.401L7.89105 18.6705L7.18559 14.4377L15.8091 7.94606L8.73667 15.0424C8.6373 15.1418 8.57121 15.2712 8.54496 15.401ZM8.97292 20.4306L9.71073 16.743L11.4315 17.9721L8.97292 20.4306ZM18.6014 21.3653L10.3173 15.4483L22.1517 3.57453L18.6014 21.3653Z" fill="#009CE8"/>
</svg>
