<svg width="20" height="20" viewBox="0 0 20 20" fill="none" xmlns="http://www.w3.org/2000/svg">
<path d="M13.53 7.53003L11.06 10L13.53 12.47C13.823 12.763 13.823 13.238 13.53 13.531C13.384 13.677 13.192 13.751 13 13.751C12.808 13.751 12.616 13.678 12.47 13.531L10 11.061L7.53003 13.531C7.38403 13.677 7.192 13.751 7 13.751C6.808 13.751 6.61597 13.678 6.46997 13.531C6.17697 13.238 6.17697 12.763 6.46997 12.47L8.94 10L6.46997 7.53003C6.17697 7.23703 6.17697 6.76199 6.46997 6.46899C6.76297 6.17599 7.23801 6.17599 7.53101 6.46899L10.001 8.93903L12.471 6.46899C12.764 6.17599 13.239 6.17599 13.532 6.46899C13.825 6.76199 13.823 7.23703 13.53 7.53003ZM19.75 7V13C19.75 16.722 16.722 19.75 13 19.75H7C3.278 19.75 0.25 16.722 0.25 13V7C0.25 3.278 3.278 0.25 7 0.25H13C16.722 0.25 19.75 3.278 19.75 7ZM18.25 7C18.25 4.105 15.895 1.75 13 1.75H7C4.105 1.75 1.75 4.105 1.75 7V13C1.75 15.895 4.105 18.25 7 18.25H13C15.895 18.25 18.25 15.895 18.25 13V7Z" fill="#FF3939"/>
</svg>
