<svg width="22" height="24" viewBox="0 0 22 24" fill="none" xmlns="http://www.w3.org/2000/svg">
<path d="M13.2549 0H8.68349C3.89539 0 0 3.89475 0 8.6817V12.7996C0 16.3645 2.19064 19.5684 5.4846 20.8734V23.5429C5.4846 23.7237 5.59104 23.8875 5.7564 23.9607C5.81577 23.9871 5.87894 24 5.94165 24C6.0528 24 6.16281 23.9594 6.24851 23.8818L8.89862 21.4813H13.2549C18.043 21.4813 21.9384 17.5866 21.9384 12.7996V8.6817C21.9384 3.89475 18.043 0 13.2549 0ZM21.0243 12.7996C21.0243 17.0827 17.5391 20.5672 13.2549 20.5672H8.72234C8.60894 20.5672 8.49962 20.6092 8.41547 20.6855L6.3987 22.5124V20.5565C6.3987 20.3628 6.27662 20.1901 6.09384 20.1258C2.99582 19.0305 0.914099 16.0865 0.914099 12.7996V8.6817C0.914099 4.39865 4.39933 0.914099 8.68349 0.914099H13.2549C17.5391 0.914099 21.0243 4.39865 21.0243 8.6817V12.7996Z" fill="#6A5CB0"/>
<path d="M17.0092 13.9369L14.2 12.1123C13.8927 11.9128 13.5274 11.8449 13.1692 11.919C12.8108 11.9944 12.503 12.206 12.303 12.5144L12.171 12.7175C10.9551 12.3158 9.61454 11.8025 8.81205 9.47929L9.14432 9.19052H9.14455C9.71477 8.69463 9.77478 7.82696 9.2787 7.25565L7.08116 4.72757C6.91552 4.53703 6.62676 4.51737 6.43617 4.68251L5.05656 5.8818C3.84607 6.93384 4.4118 8.49023 4.59773 9.00172C4.60596 9.02448 4.61601 9.04637 4.62785 9.06776C4.67584 9.15391 5.8218 11.1986 7.67208 13.0835C9.52998 14.976 12.8844 16.7238 12.9873 16.7747C13.3705 17.0233 13.8014 17.1425 14.2277 17.1425C14.9762 17.1425 15.7104 16.7756 16.148 16.1025L17.1436 14.5694C17.281 14.3573 17.2208 14.0743 17.0092 13.9369ZM15.3815 15.6044C14.9695 16.2386 14.1188 16.4189 13.4466 15.9856C13.4131 15.9682 10.081 14.2328 8.32442 12.4434C6.68279 10.771 5.59282 8.91337 5.44396 8.65404C5.08175 7.63907 5.14582 7.01506 5.65598 6.57186L6.69102 5.67248L8.58864 7.85553C8.75711 8.04922 8.73773 8.33264 8.54467 8.50047L7.98387 8.98787C7.84726 9.10661 7.79347 9.2945 7.8468 9.46727C8.80309 12.5742 10.6623 13.1844 12.0199 13.6303L12.2176 13.6954C12.4153 13.7623 12.6323 13.686 12.7454 13.5111L13.0696 13.0121C13.1366 12.9089 13.2388 12.8389 13.3575 12.8139C13.4767 12.7885 13.5985 12.8121 13.7019 12.8791L16.128 14.4546L15.3815 15.6044Z" fill="#6A5CB0"/>
<path d="M12.012 7.42579C11.7688 7.35568 11.5162 7.49718 11.4472 7.74043C11.3782 7.98326 11.5191 8.23587 11.7617 8.30506C12.4428 8.49876 12.985 9.04242 13.1772 9.72397C13.2339 9.92526 13.4173 10.0569 13.6169 10.0569C13.6579 10.0569 13.6996 10.0516 13.7411 10.04C13.984 9.97124 14.1255 9.71904 14.0569 9.4758C13.7795 8.49118 12.9958 7.70564 12.012 7.42579Z" fill="#6A5CB0"/>
<path d="M15.4908 10.1551C15.5318 10.1551 15.5735 10.1497 15.6151 10.1381C15.8581 10.0694 15.9994 9.81679 15.9309 9.574C15.3917 7.6623 13.8699 6.13717 11.9596 5.59356C11.7168 5.52349 11.4639 5.66586 11.395 5.90823C11.326 6.15102 11.4668 6.40363 11.7096 6.47283C13.3169 6.92988 14.5974 8.21355 15.0511 9.82213C15.108 10.0235 15.2913 10.1551 15.4908 10.1551Z" fill="#6A5CB0"/>
<path d="M11.7625 3.46532C11.5193 3.39526 11.2667 3.53676 11.1977 3.78C11.1287 4.02283 11.2695 4.27545 11.5121 4.34464C14.2359 5.11948 16.4053 7.29403 17.1739 10.0194C17.2306 10.2207 17.4141 10.3523 17.6136 10.3523C17.6546 10.3523 17.6964 10.347 17.7379 10.3354C17.9807 10.2666 18.1222 10.014 18.0537 9.77119C17.1996 6.74278 14.7889 4.32677 11.7625 3.46532Z" fill="#6A5CB0"/>
</svg>
